<mxfile host="app.diagrams.net" agent="Mozilla/5.0 (Windows NT 10.0; Win64; x64) AppleWebKit/537.36 (KHTML, like Gecko) Chrome/135.0.0.0 Safari/537.36 Edg/135.0.0.0" version="26.2.12">
  <diagram name="Pagina-1" id="zcSUiu2_fE6k25y4H4vx">
    <mxGraphModel dx="1687" dy="1001" grid="1" gridSize="10" guides="1" tooltips="1" connect="1" arrows="1" fold="1" page="1" pageScale="1" pageWidth="827" pageHeight="1169" math="0" shadow="0">
      <root>
        <mxCell id="0" />
        <mxCell id="1" parent="0" />
        <mxCell id="IuoWwe_m-Qj3neaBS2tY-1" value="Alert" style="swimlane;fontStyle=1;align=center;verticalAlign=top;childLayout=stackLayout;horizontal=1;startSize=32.00000762939453;horizontalStack=0;resizeParent=1;resizeParentMax=0;resizeLast=0;collapsible=0;marginBottom=0;" vertex="1" parent="1">
          <mxGeometry x="370" y="600" width="240" height="232.00000762939453" as="geometry" />
        </mxCell>
        <mxCell id="IuoWwe_m-Qj3neaBS2tY-2" value="-String patientId" style="text;strokeColor=none;fillColor=none;align=left;verticalAlign=top;spacingLeft=4;spacingRight=4;overflow=hidden;rotatable=0;points=[[0,0.5],[1,0.5]];portConstraint=eastwest;" vertex="1" parent="IuoWwe_m-Qj3neaBS2tY-1">
          <mxGeometry y="32.00000762939453" width="240" height="32" as="geometry" />
        </mxCell>
        <mxCell id="IuoWwe_m-Qj3neaBS2tY-3" value="-String condition" style="text;strokeColor=none;fillColor=none;align=left;verticalAlign=top;spacingLeft=4;spacingRight=4;overflow=hidden;rotatable=0;points=[[0,0.5],[1,0.5]];portConstraint=eastwest;" vertex="1" parent="IuoWwe_m-Qj3neaBS2tY-1">
          <mxGeometry y="64.00000762939453" width="240" height="32" as="geometry" />
        </mxCell>
        <mxCell id="IuoWwe_m-Qj3neaBS2tY-4" value="-long timestamp" style="text;strokeColor=none;fillColor=none;align=left;verticalAlign=top;spacingLeft=4;spacingRight=4;overflow=hidden;rotatable=0;points=[[0,0.5],[1,0.5]];portConstraint=eastwest;" vertex="1" parent="IuoWwe_m-Qj3neaBS2tY-1">
          <mxGeometry y="96.00000762939453" width="240" height="32" as="geometry" />
        </mxCell>
        <mxCell id="IuoWwe_m-Qj3neaBS2tY-5" style="line;strokeWidth=1;fillColor=none;align=left;verticalAlign=middle;spacingTop=-1;spacingLeft=3;spacingRight=3;rotatable=0;labelPosition=right;points=[];portConstraint=eastwest;strokeColor=inherit;" vertex="1" parent="IuoWwe_m-Qj3neaBS2tY-1">
          <mxGeometry y="128.00000762939453" width="240" height="8" as="geometry" />
        </mxCell>
        <mxCell id="IuoWwe_m-Qj3neaBS2tY-7" value="+getPatientId() : String" style="text;strokeColor=none;fillColor=none;align=left;verticalAlign=top;spacingLeft=4;spacingRight=4;overflow=hidden;rotatable=0;points=[[0,0.5],[1,0.5]];portConstraint=eastwest;" vertex="1" parent="IuoWwe_m-Qj3neaBS2tY-1">
          <mxGeometry y="136.00000762939453" width="240" height="32" as="geometry" />
        </mxCell>
        <mxCell id="IuoWwe_m-Qj3neaBS2tY-8" value="+getCondition() : String" style="text;strokeColor=none;fillColor=none;align=left;verticalAlign=top;spacingLeft=4;spacingRight=4;overflow=hidden;rotatable=0;points=[[0,0.5],[1,0.5]];portConstraint=eastwest;" vertex="1" parent="IuoWwe_m-Qj3neaBS2tY-1">
          <mxGeometry y="168.00000762939453" width="240" height="32" as="geometry" />
        </mxCell>
        <mxCell id="IuoWwe_m-Qj3neaBS2tY-9" value="+getTimestamp() : long" style="text;strokeColor=none;fillColor=none;align=left;verticalAlign=top;spacingLeft=4;spacingRight=4;overflow=hidden;rotatable=0;points=[[0,0.5],[1,0.5]];portConstraint=eastwest;" vertex="1" parent="IuoWwe_m-Qj3neaBS2tY-1">
          <mxGeometry y="200.00000762939453" width="240" height="32" as="geometry" />
        </mxCell>
        <mxCell id="IuoWwe_m-Qj3neaBS2tY-10" value="alerts.AlertGenerator" style="swimlane;fontStyle=1;align=center;verticalAlign=top;childLayout=stackLayout;horizontal=1;startSize=36.80000610351563;horizontalStack=0;resizeParent=1;resizeParentMax=0;resizeLast=0;collapsible=0;marginBottom=0;" vertex="1" parent="1">
          <mxGeometry x="84" y="330" width="397" height="192.8000061035156" as="geometry" />
        </mxCell>
        <mxCell id="IuoWwe_m-Qj3neaBS2tY-11" value="- DataStorage dataStorage" style="text;strokeColor=none;fillColor=none;align=left;verticalAlign=top;spacingLeft=4;spacingRight=4;overflow=hidden;rotatable=0;points=[[0,0.5],[1,0.5]];portConstraint=eastwest;" vertex="1" parent="IuoWwe_m-Qj3neaBS2tY-10">
          <mxGeometry y="36.80000610351563" width="397" height="37" as="geometry" />
        </mxCell>
        <mxCell id="IuoWwe_m-Qj3neaBS2tY-12" style="line;strokeWidth=1;fillColor=none;align=left;verticalAlign=middle;spacingTop=-1;spacingLeft=3;spacingRight=3;rotatable=0;labelPosition=right;points=[];portConstraint=eastwest;strokeColor=inherit;" vertex="1" parent="IuoWwe_m-Qj3neaBS2tY-10">
          <mxGeometry y="73.80000610351563" width="397" height="8" as="geometry" />
        </mxCell>
        <mxCell id="IuoWwe_m-Qj3neaBS2tY-13" value="+ AlertGenerator(dataStorage: DataStorage)" style="text;strokeColor=none;fillColor=none;align=left;verticalAlign=top;spacingLeft=4;spacingRight=4;overflow=hidden;rotatable=0;points=[[0,0.5],[1,0.5]];portConstraint=eastwest;" vertex="1" parent="IuoWwe_m-Qj3neaBS2tY-10">
          <mxGeometry y="81.80000610351563" width="397" height="37" as="geometry" />
        </mxCell>
        <mxCell id="IuoWwe_m-Qj3neaBS2tY-14" value="+ evaluateData(patient: Patient) : void" style="text;strokeColor=none;fillColor=none;align=left;verticalAlign=top;spacingLeft=4;spacingRight=4;overflow=hidden;rotatable=0;points=[[0,0.5],[1,0.5]];portConstraint=eastwest;" vertex="1" parent="IuoWwe_m-Qj3neaBS2tY-10">
          <mxGeometry y="118.80000610351563" width="397" height="37" as="geometry" />
        </mxCell>
        <mxCell id="IuoWwe_m-Qj3neaBS2tY-15" value="- triggerAlert(alert: Alert) : void" style="text;strokeColor=none;fillColor=none;align=left;verticalAlign=top;spacingLeft=4;spacingRight=4;overflow=hidden;rotatable=0;points=[[0,0.5],[1,0.5]];portConstraint=eastwest;" vertex="1" parent="IuoWwe_m-Qj3neaBS2tY-10">
          <mxGeometry y="155.8000061035156" width="397" height="37" as="geometry" />
        </mxCell>
        <mxCell id="IuoWwe_m-Qj3neaBS2tY-16" value="DataStorage" style="swimlane;fontStyle=1;align=center;verticalAlign=top;childLayout=stackLayout;horizontal=1;startSize=38.000003814697266;horizontalStack=0;resizeParent=1;resizeParentMax=0;resizeLast=0;collapsible=0;marginBottom=0;" vertex="1" parent="1">
          <mxGeometry x="80" y="572" width="113" height="57.000003814697266" as="geometry" />
        </mxCell>
        <mxCell id="IuoWwe_m-Qj3neaBS2tY-17" style="line;strokeWidth=1;fillColor=none;align=left;verticalAlign=middle;spacingTop=-1;spacingLeft=3;spacingRight=3;rotatable=0;labelPosition=right;points=[];portConstraint=eastwest;strokeColor=inherit;" vertex="1" parent="IuoWwe_m-Qj3neaBS2tY-16">
          <mxGeometry y="38.000003814697266" width="113" height="19" as="geometry" />
        </mxCell>
        <mxCell id="IuoWwe_m-Qj3neaBS2tY-18" value="Patient" style="swimlane;fontStyle=1;align=center;verticalAlign=top;childLayout=stackLayout;horizontal=1;startSize=38.000003814697266;horizontalStack=0;resizeParent=1;resizeParentMax=0;resizeLast=0;collapsible=0;marginBottom=0;" vertex="1" parent="1">
          <mxGeometry x="243" y="572" width="77" height="57.000003814697266" as="geometry" />
        </mxCell>
        <mxCell id="IuoWwe_m-Qj3neaBS2tY-19" style="line;strokeWidth=1;fillColor=none;align=left;verticalAlign=middle;spacingTop=-1;spacingLeft=3;spacingRight=3;rotatable=0;labelPosition=right;points=[];portConstraint=eastwest;strokeColor=inherit;" vertex="1" parent="IuoWwe_m-Qj3neaBS2tY-18">
          <mxGeometry y="38.000003814697266" width="77" height="19" as="geometry" />
        </mxCell>
        <mxCell id="IuoWwe_m-Qj3neaBS2tY-22" value="" style="curved=1;startArrow=none;endArrow=open;endSize=12;exitX=0.21;exitY=1;entryX=0.5;entryY=0;rounded=0;" edge="1" parent="1" source="IuoWwe_m-Qj3neaBS2tY-10" target="IuoWwe_m-Qj3neaBS2tY-16">
          <mxGeometry relative="1" as="geometry">
            <Array as="points">
              <mxPoint x="137" y="547" />
            </Array>
          </mxGeometry>
        </mxCell>
        <mxCell id="IuoWwe_m-Qj3neaBS2tY-23" value="" style="curved=1;startArrow=none;endArrow=open;endSize=12;exitX=0.5;exitY=1;entryX=0.51;entryY=0;rounded=0;" edge="1" parent="1" source="IuoWwe_m-Qj3neaBS2tY-10" target="IuoWwe_m-Qj3neaBS2tY-18">
          <mxGeometry relative="1" as="geometry">
            <Array as="points" />
          </mxGeometry>
        </mxCell>
        <mxCell id="IuoWwe_m-Qj3neaBS2tY-24" value="" style="curved=1;startArrow=none;endArrow=open;endSize=12;exitX=0.74;exitY=1;entryX=0.5;entryY=0;rounded=0;entryDx=0;entryDy=0;" edge="1" parent="1" source="IuoWwe_m-Qj3neaBS2tY-10" target="IuoWwe_m-Qj3neaBS2tY-1">
          <mxGeometry relative="1" as="geometry">
            <Array as="points">
              <mxPoint x="401" y="547" />
            </Array>
            <mxPoint x="470.5" y="572" as="targetPoint" />
          </mxGeometry>
        </mxCell>
        <mxCell id="IuoWwe_m-Qj3neaBS2tY-25" value="cardio_generator.generators.AlertGenerator" style="swimlane;fontStyle=1;align=center;verticalAlign=top;childLayout=stackLayout;horizontal=1;startSize=33.14286150251116;horizontalStack=0;resizeParent=1;resizeParentMax=0;resizeLast=0;collapsible=0;marginBottom=0;" vertex="1" parent="1">
          <mxGeometry x="219" y="900" width="361" height="239.14286150251115" as="geometry" />
        </mxCell>
        <mxCell id="IuoWwe_m-Qj3neaBS2tY-26" value="-boolean[] alertStates" style="text;strokeColor=none;fillColor=none;align=left;verticalAlign=top;spacingLeft=4;spacingRight=4;overflow=hidden;rotatable=0;points=[[0,0.5],[1,0.5]];portConstraint=eastwest;" vertex="1" parent="IuoWwe_m-Qj3neaBS2tY-25">
          <mxGeometry y="33.14286150251116" width="361" height="33" as="geometry" />
        </mxCell>
        <mxCell id="IuoWwe_m-Qj3neaBS2tY-27" value="-static Random randomGenerator" style="text;strokeColor=none;fillColor=none;align=left;verticalAlign=top;spacingLeft=4;spacingRight=4;overflow=hidden;rotatable=0;points=[[0,0.5],[1,0.5]];portConstraint=eastwest;" vertex="1" parent="IuoWwe_m-Qj3neaBS2tY-25">
          <mxGeometry y="66.14286150251115" width="361" height="33" as="geometry" />
        </mxCell>
        <mxCell id="IuoWwe_m-Qj3neaBS2tY-28" value="-static final double RESOLUTION_PROBABILITY" style="text;strokeColor=none;fillColor=none;align=left;verticalAlign=top;spacingLeft=4;spacingRight=4;overflow=hidden;rotatable=0;points=[[0,0.5],[1,0.5]];portConstraint=eastwest;" vertex="1" parent="IuoWwe_m-Qj3neaBS2tY-25">
          <mxGeometry y="99.14286150251115" width="361" height="33" as="geometry" />
        </mxCell>
        <mxCell id="IuoWwe_m-Qj3neaBS2tY-29" value="-static final double ALERT_RATE_LAMBDA" style="text;strokeColor=none;fillColor=none;align=left;verticalAlign=top;spacingLeft=4;spacingRight=4;overflow=hidden;rotatable=0;points=[[0,0.5],[1,0.5]];portConstraint=eastwest;" vertex="1" parent="IuoWwe_m-Qj3neaBS2tY-25">
          <mxGeometry y="132.14286150251115" width="361" height="33" as="geometry" />
        </mxCell>
        <mxCell id="IuoWwe_m-Qj3neaBS2tY-30" style="line;strokeWidth=1;fillColor=none;align=left;verticalAlign=middle;spacingTop=-1;spacingLeft=3;spacingRight=3;rotatable=0;labelPosition=right;points=[];portConstraint=eastwest;strokeColor=inherit;" vertex="1" parent="IuoWwe_m-Qj3neaBS2tY-25">
          <mxGeometry y="165.14286150251115" width="361" height="8" as="geometry" />
        </mxCell>
        <mxCell id="IuoWwe_m-Qj3neaBS2tY-31" value="+AlertGenerator(patientCount: int)" style="text;strokeColor=none;fillColor=none;align=left;verticalAlign=top;spacingLeft=4;spacingRight=4;overflow=hidden;rotatable=0;points=[[0,0.5],[1,0.5]];portConstraint=eastwest;" vertex="1" parent="IuoWwe_m-Qj3neaBS2tY-25">
          <mxGeometry y="173.14286150251115" width="361" height="33" as="geometry" />
        </mxCell>
        <mxCell id="IuoWwe_m-Qj3neaBS2tY-32" value="+generate(patientId: int, outputStrategy: OutputStrategy) : void" style="text;strokeColor=none;fillColor=none;align=left;verticalAlign=top;spacingLeft=4;spacingRight=4;overflow=hidden;rotatable=0;points=[[0,0.5],[1,0.5]];portConstraint=eastwest;" vertex="1" parent="IuoWwe_m-Qj3neaBS2tY-25">
          <mxGeometry y="206.14286150251115" width="361" height="33" as="geometry" />
        </mxCell>
        <mxCell id="IuoWwe_m-Qj3neaBS2tY-39" value="" style="curved=1;dashed=1;startArrow=none;endArrow=block;endSize=16;endFill=0;exitX=0;exitY=1;rounded=0;entryX=0.5;entryY=0;entryDx=0;entryDy=0;" edge="1" parent="1" source="IuoWwe_m-Qj3neaBS2tY-25" target="IuoWwe_m-Qj3neaBS2tY-67">
          <mxGeometry relative="1" as="geometry">
            <Array as="points">
              <mxPoint x="164" y="1165" />
            </Array>
            <mxPoint x="920" y="1450" as="targetPoint" />
          </mxGeometry>
        </mxCell>
        <mxCell id="IuoWwe_m-Qj3neaBS2tY-40" value="" style="curved=1;startArrow=none;endArrow=open;endSize=12;exitX=1;exitY=1;entryX=0.5;entryY=0;rounded=0;entryDx=0;entryDy=0;" edge="1" parent="1" source="IuoWwe_m-Qj3neaBS2tY-25" target="IuoWwe_m-Qj3neaBS2tY-49">
          <mxGeometry relative="1" as="geometry">
            <Array as="points">
              <mxPoint x="817" y="1165" />
            </Array>
          </mxGeometry>
        </mxCell>
        <mxCell id="IuoWwe_m-Qj3neaBS2tY-41" value="BloodLevelsDataGenerator" style="swimlane;fontStyle=1;align=center;verticalAlign=top;childLayout=stackLayout;horizontal=1;startSize=33.14286150251116;horizontalStack=0;resizeParent=1;resizeParentMax=0;resizeLast=0;collapsible=0;marginBottom=0;" vertex="1" parent="1">
          <mxGeometry x="610" y="900" width="361" height="239.14286150251115" as="geometry" />
        </mxCell>
        <mxCell id="IuoWwe_m-Qj3neaBS2tY-42" value="- static Random random" style="text;strokeColor=none;fillColor=none;align=left;verticalAlign=top;spacingLeft=4;spacingRight=4;overflow=hidden;rotatable=0;points=[[0,0.5],[1,0.5]];portConstraint=eastwest;" vertex="1" parent="IuoWwe_m-Qj3neaBS2tY-41">
          <mxGeometry y="33.14286150251116" width="361" height="33" as="geometry" />
        </mxCell>
        <mxCell id="IuoWwe_m-Qj3neaBS2tY-43" value="- double[] baselineCholesterol" style="text;strokeColor=none;fillColor=none;align=left;verticalAlign=top;spacingLeft=4;spacingRight=4;overflow=hidden;rotatable=0;points=[[0,0.5],[1,0.5]];portConstraint=eastwest;" vertex="1" parent="IuoWwe_m-Qj3neaBS2tY-41">
          <mxGeometry y="66.14286150251115" width="361" height="33" as="geometry" />
        </mxCell>
        <mxCell id="IuoWwe_m-Qj3neaBS2tY-44" value="- double[] baselineWhiteCells" style="text;strokeColor=none;fillColor=none;align=left;verticalAlign=top;spacingLeft=4;spacingRight=4;overflow=hidden;rotatable=0;points=[[0,0.5],[1,0.5]];portConstraint=eastwest;" vertex="1" parent="IuoWwe_m-Qj3neaBS2tY-41">
          <mxGeometry y="99.14286150251115" width="361" height="33" as="geometry" />
        </mxCell>
        <mxCell id="IuoWwe_m-Qj3neaBS2tY-45" value="- double[] baselineRedCells" style="text;strokeColor=none;fillColor=none;align=left;verticalAlign=top;spacingLeft=4;spacingRight=4;overflow=hidden;rotatable=0;points=[[0,0.5],[1,0.5]];portConstraint=eastwest;" vertex="1" parent="IuoWwe_m-Qj3neaBS2tY-41">
          <mxGeometry y="132.14286150251115" width="361" height="33" as="geometry" />
        </mxCell>
        <mxCell id="IuoWwe_m-Qj3neaBS2tY-46" style="line;strokeWidth=1;fillColor=none;align=left;verticalAlign=middle;spacingTop=-1;spacingLeft=3;spacingRight=3;rotatable=0;labelPosition=right;points=[];portConstraint=eastwest;strokeColor=inherit;" vertex="1" parent="IuoWwe_m-Qj3neaBS2tY-41">
          <mxGeometry y="165.14286150251115" width="361" height="8" as="geometry" />
        </mxCell>
        <mxCell id="IuoWwe_m-Qj3neaBS2tY-47" value="+ BloodLevelsDataGenerator(patientCount: int)" style="text;strokeColor=none;fillColor=none;align=left;verticalAlign=top;spacingLeft=4;spacingRight=4;overflow=hidden;rotatable=0;points=[[0,0.5],[1,0.5]];portConstraint=eastwest;" vertex="1" parent="IuoWwe_m-Qj3neaBS2tY-41">
          <mxGeometry y="173.14286150251115" width="361" height="33" as="geometry" />
        </mxCell>
        <mxCell id="IuoWwe_m-Qj3neaBS2tY-48" value="+ generate(patientId: int, outputStrategy: OutputStrategy) : void" style="text;strokeColor=none;fillColor=none;align=left;verticalAlign=top;spacingLeft=4;spacingRight=4;overflow=hidden;rotatable=0;points=[[0,0.5],[1,0.5]];portConstraint=eastwest;" vertex="1" parent="IuoWwe_m-Qj3neaBS2tY-41">
          <mxGeometry y="206.14286150251115" width="361" height="33" as="geometry" />
        </mxCell>
        <mxCell id="IuoWwe_m-Qj3neaBS2tY-49" value="&lt;&lt;interface&gt;&gt;&#xa;OutputStrategy" style="swimlane;fontStyle=1;align=center;verticalAlign=top;childLayout=stackLayout;horizontal=1;startSize=71.00000762939453;horizontalStack=0;resizeParent=1;resizeParentMax=0;resizeLast=0;collapsible=0;marginBottom=0;" vertex="1" parent="1">
          <mxGeometry x="1060" y="1410" width="390" height="126.00000762939453" as="geometry" />
        </mxCell>
        <mxCell id="IuoWwe_m-Qj3neaBS2tY-50" style="line;strokeWidth=1;fillColor=none;align=left;verticalAlign=middle;spacingTop=-1;spacingLeft=3;spacingRight=3;rotatable=0;labelPosition=right;points=[];portConstraint=eastwest;strokeColor=inherit;" vertex="1" parent="IuoWwe_m-Qj3neaBS2tY-49">
          <mxGeometry y="71.00000762939453" width="390" height="8" as="geometry" />
        </mxCell>
        <mxCell id="IuoWwe_m-Qj3neaBS2tY-51" value="+output(patientId: int, timestamp: long, type: String, value: String) : void" style="text;strokeColor=none;fillColor=none;align=left;verticalAlign=top;spacingLeft=4;spacingRight=4;overflow=hidden;rotatable=0;points=[[0,0.5],[1,0.5]];portConstraint=eastwest;" vertex="1" parent="IuoWwe_m-Qj3neaBS2tY-49">
          <mxGeometry y="79.00000762939453" width="390" height="47" as="geometry" />
        </mxCell>
        <mxCell id="IuoWwe_m-Qj3neaBS2tY-55" value="" style="curved=1;dashed=1;startArrow=none;endArrow=block;endSize=16;endFill=0;exitX=0.05;exitY=1;rounded=0;entryX=0.5;entryY=0;entryDx=0;entryDy=0;" edge="1" parent="1" source="IuoWwe_m-Qj3neaBS2tY-41" target="IuoWwe_m-Qj3neaBS2tY-67">
          <mxGeometry relative="1" as="geometry">
            <Array as="points">
              <mxPoint x="824" y="1365" />
            </Array>
            <mxPoint x="825" y="1810" as="targetPoint" />
          </mxGeometry>
        </mxCell>
        <mxCell id="IuoWwe_m-Qj3neaBS2tY-56" value="" style="curved=1;startArrow=none;endArrow=open;endSize=12;exitX=0.95;exitY=1;entryX=0.5;entryY=0;rounded=0;" edge="1" parent="1" source="IuoWwe_m-Qj3neaBS2tY-41" target="IuoWwe_m-Qj3neaBS2tY-49">
          <mxGeometry relative="1" as="geometry">
            <Array as="points">
              <mxPoint x="1420" y="1420" />
            </Array>
          </mxGeometry>
        </mxCell>
        <mxCell id="IuoWwe_m-Qj3neaBS2tY-57" value="BloodPressureDataGenerator" style="swimlane;fontStyle=1;align=center;verticalAlign=top;childLayout=stackLayout;horizontal=1;startSize=34.66667175292969;horizontalStack=0;resizeParent=1;resizeParentMax=0;resizeLast=0;collapsible=0;marginBottom=0;" vertex="1" parent="1">
          <mxGeometry x="1000" y="900" width="370" height="217.6666717529297" as="geometry" />
        </mxCell>
        <mxCell id="IuoWwe_m-Qj3neaBS2tY-58" value="- static Random random" style="text;strokeColor=none;fillColor=none;align=left;verticalAlign=top;spacingLeft=4;spacingRight=4;overflow=hidden;rotatable=0;points=[[0,0.5],[1,0.5]];portConstraint=eastwest;" vertex="1" parent="IuoWwe_m-Qj3neaBS2tY-57">
          <mxGeometry y="34.66667175292969" width="370" height="35" as="geometry" />
        </mxCell>
        <mxCell id="IuoWwe_m-Qj3neaBS2tY-59" value="- int[] lastSystolicValues" style="text;strokeColor=none;fillColor=none;align=left;verticalAlign=top;spacingLeft=4;spacingRight=4;overflow=hidden;rotatable=0;points=[[0,0.5],[1,0.5]];portConstraint=eastwest;" vertex="1" parent="IuoWwe_m-Qj3neaBS2tY-57">
          <mxGeometry y="69.66667175292969" width="370" height="35" as="geometry" />
        </mxCell>
        <mxCell id="IuoWwe_m-Qj3neaBS2tY-60" value="- int[] lastDiastolicValues" style="text;strokeColor=none;fillColor=none;align=left;verticalAlign=top;spacingLeft=4;spacingRight=4;overflow=hidden;rotatable=0;points=[[0,0.5],[1,0.5]];portConstraint=eastwest;" vertex="1" parent="IuoWwe_m-Qj3neaBS2tY-57">
          <mxGeometry y="104.66667175292969" width="370" height="35" as="geometry" />
        </mxCell>
        <mxCell id="IuoWwe_m-Qj3neaBS2tY-61" style="line;strokeWidth=1;fillColor=none;align=left;verticalAlign=middle;spacingTop=-1;spacingLeft=3;spacingRight=3;rotatable=0;labelPosition=right;points=[];portConstraint=eastwest;strokeColor=inherit;" vertex="1" parent="IuoWwe_m-Qj3neaBS2tY-57">
          <mxGeometry y="139.6666717529297" width="370" height="8" as="geometry" />
        </mxCell>
        <mxCell id="IuoWwe_m-Qj3neaBS2tY-62" value="+ BloodPressureDataGenerator(patientCount: int)" style="text;strokeColor=none;fillColor=none;align=left;verticalAlign=top;spacingLeft=4;spacingRight=4;overflow=hidden;rotatable=0;points=[[0,0.5],[1,0.5]];portConstraint=eastwest;" vertex="1" parent="IuoWwe_m-Qj3neaBS2tY-57">
          <mxGeometry y="147.6666717529297" width="370" height="35" as="geometry" />
        </mxCell>
        <mxCell id="IuoWwe_m-Qj3neaBS2tY-63" value="+ generate(patientId: int, outputStrategy: OutputStrategy) : void" style="text;strokeColor=none;fillColor=none;align=left;verticalAlign=top;spacingLeft=4;spacingRight=4;overflow=hidden;rotatable=0;points=[[0,0.5],[1,0.5]];portConstraint=eastwest;" vertex="1" parent="IuoWwe_m-Qj3neaBS2tY-57">
          <mxGeometry y="182.6666717529297" width="370" height="35" as="geometry" />
        </mxCell>
        <mxCell id="IuoWwe_m-Qj3neaBS2tY-67" value="&lt;&lt;interface&gt;&gt;&#xa;PatientDataGenerator" style="swimlane;fontStyle=1;align=center;verticalAlign=top;childLayout=stackLayout;horizontal=1;startSize=71.00000762939453;horizontalStack=0;resizeParent=1;resizeParentMax=0;resizeLast=0;collapsible=0;marginBottom=0;" vertex="1" parent="1">
          <mxGeometry x="370" y="1410" width="380" height="126.00000762939453" as="geometry" />
        </mxCell>
        <mxCell id="IuoWwe_m-Qj3neaBS2tY-68" style="line;strokeWidth=1;fillColor=none;align=left;verticalAlign=middle;spacingTop=-1;spacingLeft=3;spacingRight=3;rotatable=0;labelPosition=right;points=[];portConstraint=eastwest;strokeColor=inherit;" vertex="1" parent="IuoWwe_m-Qj3neaBS2tY-67">
          <mxGeometry y="71.00000762939453" width="380" height="8" as="geometry" />
        </mxCell>
        <mxCell id="IuoWwe_m-Qj3neaBS2tY-69" value="+generate(patientId: int, outputStrategy: OutputStrategy) : void" style="text;strokeColor=none;fillColor=none;align=left;verticalAlign=top;spacingLeft=4;spacingRight=4;overflow=hidden;rotatable=0;points=[[0,0.5],[1,0.5]];portConstraint=eastwest;" vertex="1" parent="IuoWwe_m-Qj3neaBS2tY-67">
          <mxGeometry y="79.00000762939453" width="380" height="47" as="geometry" />
        </mxCell>
        <mxCell id="IuoWwe_m-Qj3neaBS2tY-71" value="" style="curved=1;startArrow=none;endArrow=open;endSize=12;exitX=0.93;exitY=1;entryX=0.5;entryY=0;rounded=0;entryDx=0;entryDy=0;" edge="1" parent="1" source="IuoWwe_m-Qj3neaBS2tY-57" target="IuoWwe_m-Qj3neaBS2tY-49">
          <mxGeometry relative="1" as="geometry">
            <Array as="points" />
          </mxGeometry>
        </mxCell>
        <mxCell id="IuoWwe_m-Qj3neaBS2tY-72" value="" style="curved=1;startArrow=none;endArrow=open;endSize=12;exitX=0.523;exitY=1.103;entryX=0.5;entryY=0;rounded=0;entryDx=0;entryDy=0;exitDx=0;exitDy=0;exitPerimeter=0;" edge="1" parent="1" source="IuoWwe_m-Qj3neaBS2tY-63" target="IuoWwe_m-Qj3neaBS2tY-67">
          <mxGeometry relative="1" as="geometry">
            <Array as="points" />
            <mxPoint x="1440" y="1350" as="sourcePoint" />
            <mxPoint x="1453" y="1482" as="targetPoint" />
          </mxGeometry>
        </mxCell>
      </root>
    </mxGraphModel>
  </diagram>
</mxfile>
